<?xml version="1.0" encoding="utf-8"?>
<!-- Generator: Adobe Illustrator 25.2.3, SVG Export Plug-In . SVG Version: 6.00 Build 0)  -->
<svg version="1.1" id="Layer_1" xmlns="http://www.w3.org/2000/svg" xmlns:xlink="http://www.w3.org/1999/xlink" x="0px" y="0px"
	 viewBox="0 0 5871.4 3485.3" style="enable-background:new 0 0 5871.4 3485.3;" xml:space="preserve">
<style type="text/css">
	.st0{clip-path:url(#SVGID_2_);}
	.st1{fill:#254653;}
	.st2{fill:#F4D864;}
	.st3{fill:#F3A161;}
	.st4{fill:#305159;}
	.st5{opacity:0.3;fill:#F16528;enable-background:new    ;}
	.st6{opacity:0.3;fill:#F6914C;enable-background:new    ;}
	.st7{fill:#51AE9D;}
	.st8{fill:#FFFFFF;}
	.st9{fill:none;stroke:#E55635;stroke-width:0.975;stroke-miterlimit:9.7504;}
	.st10{fill:none;stroke:#495BA8;stroke-width:0.975;stroke-miterlimit:9.7504;}
	.st11{fill:none;stroke:#63BF89;stroke-width:0.975;stroke-miterlimit:9.7504;}
</style>
<g id="Layer_2_1_">
	<g id="Layer_1-2">
		<g>
			<defs>
				<rect id="SVGID_1_" width="5871.4" height="3485.3"/>
			</defs>
			<clipPath id="SVGID_2_">
				<use xlink:href="#SVGID_1_"  style="overflow:visible;"/>
			</clipPath>
			<g class="st0">
				<rect x="-302.4" y="-179.5" class="st1" width="7580.4" height="4499.9"/>
				<path class="st2" d="M1204.6,4319.1c158.7,5.1,1038.4,0,1038.4,0c35.2-111.8,233.9-591.5,235.5-1020.5
					c3.5-926.3,537.7-1376.8,561.1-1391h0.1c0.5-0.3,1-0.7,1.5-1c1.9-1.1,3.8-2.3,5.7-3.4c4.7-2.8,9.4-5.9,14.1-8.5
					c1.7-1.1,3.3-2,5-2.9c0.1-0.1,9.9-5.9,14.9-8.9c-264.7,68-568.5,184.9-810.9,338.9C2049.1,2362.3,1216.5,2894.3,1204.6,4319.1z"
					/>
				<path class="st3" d="M14.1,3436.8l114.8,6.6c0,0-439.1-81.3-438.8-36.6c0.4,44.7,0,912.4,0,912.4s1508.2,27.6,1526.4,21.1
					c303-108.1,652.3-1095.7,757.4-1322c126.5-273.7,271.2-919.7,1106.9-1135.3c-3.9-0.7-1207.3-155.4-1447,240.7
					c-136.3,225.2-269.3,329.6-429.2,517c-234.2,274.6-473.4,504.8-784.3,436c-135.7-30-270.9-72.6-406.2-108L14.1,3436.8z"/>
				<path class="st4" d="M2234.3,1748.9c-175.5-82.5-2220.1,434.8-2220.1,434.8l-324.1,162.8c0,0-203.9,1471.6,0,1472.7
					c366.5,0,885.2-285.2,900-287.8c791.6-139.4,1052.8-700.2,1357-1122.5c400.7-556.3,1115.4-529.8,1133.8-526
					C3074.9,1881.5,2327.9,1793.1,2234.3,1748.9z"/>
				<path class="st2" d="M-309.9,1685.1c1.2,0.4,326.6,94.8,327.7,95.2c186.8,71.8,388.5,78.1,580.7,45.5
					c146.9-24.9,295.3-8.1,434.6-73.3c232.9-109.2,455.1,123.3,701.2,89c185.6-25.7,330.4-48.9,505.8,33.6
					c93.7,44.2,810.1,11.5,840.6,7.8c0,0-108.6-32.3-113-34.5c-7.2-3.5-14.4-7.2-21.6-11.1c-5-2.6-10-5.4-15-8.2
					c-11.3-6.3-22.7-13-34.3-20.1c-2.3-1.5-4.8-2.9-7.2-4.5c-28.1-17.6-57.2-37.2-87.2-59c-3.8-2.7-7.5-5.4-11.3-8.2
					c-0.1,0-0.2-0.1-0.3-0.1c-0.3-0.1-0.4-0.4-0.7-0.5c-0.1-0.1-0.3-0.3-0.3-0.3c-56-41.2-114.9-88.7-175.7-140.1
					c-12.2-10.3-24.5-20.7-36.8-31.3c-73.1-62.6-148.8-130.1-225.9-198.4c-13.4-11.9-27-23.9-40.5-35.8
					c-132.4-117-267.9-234.3-399.6-331.6c-8.7-6.5-17.4-12.9-26.1-19.1c-41-29.6-81.6-57-121.5-81.8c-4.4-2.8-8.9-5.5-13.2-8.1
					c-6.3-3.9-12.6-7.7-19-11.3c-8.3-4.9-16.7-9.8-25-14.3c-6.8-3.9-13.7-7.6-20.5-11.2c-5.9-3.1-11.6-6.2-17.5-9.2
					c-5-2.6-10-5.1-15-7.6c-4.4-2.3-8.9-4.5-13.4-6.5c-3.7-1.9-7.3-3.6-10.9-5.3c-13.7-6.3-27-12.2-40.4-17.6
					c-3.5-1.5-6.9-2.8-10.3-4c-13.9-5.5-27.7-10.5-41.3-14.9c-210.6-67.7-854.8-376.9-904.9-376.8c-64.5,0.1-124.6,0.3-179.6,0.3
					c-67.9,0.3-35.1-350.1-86.6-350C239.9,61.9-294.8-182-300.1-182C-332.6-181.4-309.9,1685.1-309.9,1685.1z"/>
				<path class="st2" d="M3080.8,1882.9c163,266.9,355.1,417.3,609.6,498.5c42.1,13.4,146.1-9.1,182.8-1.2
					c86.7,19.1,142.6,11.7,232.2,5.9c41.3-2.6,1250.8,495.7,1299.9,489c182.3-24.9,1869.1,148.9,1873.3,152.9V1295.7l-1443.2,477.6
					c0,0-229-210.8-331.6-495.1c-195-40-275,32.7-275,32.7c-10.3,3.7-20.4,7.6-30.3,11.9c-5,2-9.9,4.3-14.9,6.6
					c-4.9,2.3-9.9,4.6-14.7,7c0,0-702.7,686.4-756.2,690.3c-210.2,15.3-427.5,19.7-641.3-32.2c-235.3-57-444.1-34.8-675.8-106.8
					C3090.7,1886,3085.7,1884.4,3080.8,1882.9z"/>
				<path class="st2" d="M3080.8,1882.9c1.9-1.9,3.8-3.5,5.7-5.3c0.1-0.1,0.2-0.3,0.3-0.3v-0.1c2.9-2.7,5.9-5.4,8.9-7.8
					c3-2.8,6-5.3,9-7.7c6.8-5.7,13.9-11.1,21-16.1c5.3-3.9,10.7-7.4,16.1-10.9c2.7-1.8,5.4-3.5,8.1-5.1l8.3-4.9
					c3.3-2,6.8-3.9,10.2-5.7c1-0.6,2.1-1.1,3.2-1.6c1.8-1.1,3.6-1.9,5.3-2.8c5-2.6,10-5,15.1-7.3c6.8-3.1,13.7-6.1,20.5-8.8h0.1
					c6.9-2.8,13.9-5.4,20.9-7.7c7-2.3,14.1-4.7,21.3-6.6c10.6-3.2,21.5-5.9,32.3-8.1c18.2-4,36.5-7,55-8.9
					c14.5-1.8,29.1-2.8,43.7-3.5l12.2-0.4c3.7-0.1,7.4-0.1,11.1-0.1c9.7-0.3,19.5-0.3,29.1,0c3.3,0,6.6,0.1,9.9,0.3
					c2.9,0,5.9,0.1,8.8,0.4h1.2c2,0.1,4,0.1,5.9,0.3c4.9,0.1,9.7,0.4,14.4,0.8c1,0.1,2.1,0.1,3.3,0.3c19.2,1.3,38.2,3.2,57.1,5.5
					c12.9,1.6,25.9,3.4,38.7,5.3c169,25.7,349.1,58.9,501.7-38.5c151.7-96.8,242.2-301.6,314.6-500.2c20.9-57.3,41.4-115.5,63.2-173
					c10.1-26.8,20.5-53.2,31.3-79.2c46.6-112.4,101.1-217.2,176.6-297.8c146.3-156.2,339.5-191.4,528.4-241
					c-40.8-56.1-86.6-48.5-86.6-48.5s-7.8-574.4-425.8-573.6c0,0-354.6-6.3-460.6-6.1c-37.8,242.6-245.6,1030.4-382.4,1208.4
					c-121.8,158.2-244,278.7-396.2,383.3C3289.4,1514.4,3132.8,1669.4,3080.8,1882.9z"/>
				<path class="st2" d="M1329.7-182c5.9,4.9,802.5,594.9,808.3,600c76.2,66,143.6,146.7,191.5,247.5
					c72,151.6,92.9,333.8,142.2,500.2c94.8,319.9,302.4,579.2,550.7,693.3l14.5,6.5c8.6,3.6,17.2,7.3,25.9,10.7
					c6,2.4,12,4.7,18.1,6.9c-115.4-84.6-191.8-233.7-235.3-393.5c-43.4-159.9-52-331.4-69.1-499.3s-44.9-340-119.9-478.7
					c-21.6-39.9-46.4-75.8-73.3-109.2c-59,0-205.1-371.9-247.5-437.8C1916.2-689.3,1424.4-182.2,1329.7-182z"/>
				<path class="st2" d="M3051.1,3428.4c45.9,79.5,102.6,146.5,158.3,214.7l536.3,676h1294.4c-41.4-73-62.3-534-641.4-941.4
					c-182.9-128.7-267-91.7-471.1-143.7c-236.1-60.1-551.2-228.8-669.9-500.9s-157.6-541.7-176.8-850.5
					c-12.6,41.4-23.4,83.4-35,124.8c-2.9,10.4-5.9,20.9-8.8,31.3c-2.2,7.6-4.3,15.3-6.3,23c-3.3,12.3-6.6,24.7-9.8,37.1
					c-2.4,9.2-4.8,18.2-7.1,27.3c-6.8,27-13.5,54.1-19.8,81.2c-3,12.8-5.9,25.5-8.8,38.4c-3.1,13.4-6,26.6-8.8,40
					c-0.1,0.4-5.7,27.2-8.3,40.3c-2.7,13.5-5.3,26.9-7.8,40.4c-2.7,13.8-5.2,27.6-7.6,41.4c-2.1,12.2-4.2,24.5-6.2,36.6
					c-4.7,28.5-9,57.2-12.9,85.9c-1.5,10.8-2.9,21.6-4.3,32.6c-0.7,5.1-1.3,10.4-1.9,15.5c-1.2,9.8-2.3,19.3-3.3,29.1
					c-0.6,4.9-1.1,9.9-1.6,14.9c-1.3,10.9-2.3,21.8-3.3,32.7C2893.9,2923.7,2926,3212.1,3051.1,3428.4z"/>
				<path class="st2" d="M2913.8,1525.3c17.6,125.3,101.7,269.7,167.1,357.6c-128.4-293.4-93.8-582.5-20.7-862.6
					c1.3-5.1,2.7-10.3,4.1-15.5c41.2-155,93.4-307.1,135.6-455.8c1.4-5,2.7-9.9,4.2-14.9c2.7-9.6,5.3-19.2,7.8-28.6
					c2.7-10.3,5.5-20.4,8.1-30.5c6.3-24.2,11.9-48.9,16.7-73.9l-272.8,0.4c35.1,159.9,20.5,340-2.5,499.2
					C2931.9,1105,2884.4,1316,2913.8,1525.3z"/>
				<path class="st3" d="M311.1,334.5c730.6,686.6,937.2,698.4,1582.1,945.3c373.5,143,750.9,449.6,905.1,517.8
					c18.9,8.4,157.2,51.4,157.2,51.4c0.5,0.1,74.2,22.3,77.3,23c6.6,1.8,45.6,10.2,48,10.8c-2.7-0.7-63.8-18.4-64.8-18.8
					c-5.3-1.9-10.7-4.2-16.2-6.5c-0.6-0.3-1.2-0.5-1.9-0.8c-5-2.2-10.1-4.3-15.3-6.8c-0.6-0.3-1.2-0.6-1.8-1h-0.1
					c-4.3-2-8.6-4.2-13-6.4c-7.2-3.5-14.4-7.2-21.6-11.1c-5-2.6-10-5.4-15-8.2c-11.3-6.3-22.7-13-34.3-20.1
					c-2.3-1.5-4.8-2.9-7.2-4.5c-28.1-17.6-57.2-37.2-87.2-59.1c-3.8-2.7-7.5-5.4-11.3-8.2c-0.1,0-0.3-0.1-0.3-0.1
					c-0.3-0.1-0.4-0.4-0.7-0.5c-0.1-0.1-0.2-0.2-0.3-0.3c-56-41.2-114.9-88.7-175.7-140.1c-12.2-10.3-24.5-20.7-36.8-31.4
					c-73.1-62.6-148.9-130.1-225.9-198.4c-13.4-11.9-828.8-1120-1803.6-1542.7c-55.2,0.1-807.5-0.1-857.6,0
					C-374.3-181.9,311.7,317.1,311.1,334.5z"/>
				<path class="st3" d="M3080.8,1882.9c0,0,145.7-89.9,152.7-92.2c7-2.3,14.1-4.7,21.3-6.6c10.7-3,21.5-5.7,32.3-8.1
					c18.1-3.8,36.5-6.8,55-8.9c14.5-1.6,29.1-2.7,43.7-3.5l12.2-0.4c3.7-0.1,7.4-0.1,11.1-0.1c9.7-0.3,19.4-0.1,29.1,0
					c3.3,0,6.6,0.1,9.9,0.3c2.9,0.1,5.9,0.1,8.8,0.4h1.2c2,0.1,4,0.1,5.9,0.3c4.9,0.1,16.6,1,17.7,1.1c19.2,1.3,83,8.9,95.8,10.8
					c169,25.7,349.1,58.9,501.7-38.5c151.7-96.8,242.2-301.6,314.6-500.2c20.9-57.3,41.4-115.5,63.2-173
					c10.1-26.8,20.5-53.2,31.3-79.2c46.6-112.4,101.1-217.2,176.6-297.8c146.3-156.2,314.3-221.2,503.1-270.8
					C5993,205.6,6094.4-182,6094.4-182s-1043.2-0.8-1461.2,0c0,0-322.1,804.8-363,924.3c-40.2,117.7-76.1,236.6-129.7,345.6
					c-51.1,103.4-115.7,197.3-194.4,266.4c-91.2,79.9-196.7,122.7-301.6,161.1c-122.7,44.9-240,93.7-355.8,163.4
					C3215.1,1723,3120.1,1785.2,3080.8,1882.9z"/>
				<path class="st3" d="M2089.6-182c169.2,105.8,471.9,863,520,1018.9c65,211.4,93.6,438.7,161.7,648.8
					c35.6,109.7,81.6,186.8,152,263.8c31.5,34.5,151.4,131.2,157.5,133.4c-85.4-85.6-174.4-258.3-228.6-405.3
					c-55.3-150-58.7-319.6-75.8-487.6s211.1-1131.7,184.3-1165.1C2901.7-175.1,2148.4-182.1,2089.6-182z"/>
				<path class="st3" d="M3079.6,1875.2c-33.8-204.1,68.3-376.2,181.3-526.9c114.3-152.7,250-293.5,304.2-494.6
					c39.1-145.1,40.9-880.8,28-1035.7c-54.8,0.1-596.2-0.1-656.3,0c-4.9,25-141,1884.4,144.2,2064.9
					C3080.3,1880.3,3080,1877.6,3079.6,1875.2z"/>
				<path class="st3" d="M3044,3433.8c49.5,73.7,218.5,756.8,701.7,885.3H4472c-50.2-19.3-300.5-503.1-691-608.8
					c-380.1-102.8-633-278.9-755.2-1232.1c-36.8-287.5,53.2-582.8,55.1-595.4c-7.7,8.9-41.8,83.5-110.9,243.1
					c-37.8,87.3-169.2,245.8-177.5,512.5C2785.2,2871.4,2898.8,3217.5,3044,3433.8z"/>
				<path class="st3" d="M3080.9,1883v0.1c0,0.1,0,0.3,0.1,0.4c3.3,9.5,6.4,19.2,9.8,28.5c3.3,9.6,14.7,41.5,17,47.6
					c1.7,4.6,3.3,9,5,13.5c3.8,10,7.6,20,11.4,30c0.4,1,0.8,1.9,1.2,2.8c3.4,8.8,12,30.1,12.8,31.9c2.9,7.2,5.9,14.5,8.9,21.6
					c1.7,3.9,3.3,7.8,4.9,11.8c3.8,8.6,7.4,17.2,11.2,25.7c4.5,10.1,36.8,79.3,41.6,88.9c0.3,0.5,10.2,20.3,14.9,29.6
					c4.9,9.8,9.9,19.3,15,28.8c5,9.5,10,18.8,15.1,28.1c6.3,11.3,12.6,22.6,19,33.6c4.3,7.6,8.6,15,13,22.4
					c32.5,55,66.9,107.7,103.3,158.1c5.2,7.2,10.4,14.3,15.6,21.4c7,9.5,30.9,40.5,35.7,46.6c10.7,13.7,216.1,229.7,222.9,235.7
					c7.2,6.3,14.5,12.7,21.9,18.9c0.6,0.5,1.2,1.1,1.9,1.6c7.1,5.9,14.3,11.9,21.5,17.8c0.4,0.4,0.8,0.7,1.3,1.1
					c7.4,5.9,14.9,11.9,22.4,17.8c8.1,6.4,16.3,12.7,24.5,18.8c6.3,4.7,12.7,9.5,19,14.1c10.4,7.7,21,15.1,31.6,22.4
					c23.4,16.1,47,31.5,71,46c9.9,6.1,19.9,12,30.1,17.8c15.4,8.8,31,17.3,46.7,25.5c17,8.9,34.3,17.6,51.6,25.7
					c8.7,4.2,17.4,8.1,26.1,12s70.5,28.9,79.3,32.2c7.8,2.9,45.8,16,53.8,18.4c7.3,2.4,14.7,4.7,22.1,6.9c3.8,1.2,7.8,2.3,11.7,3.4
					c3.8,1.2,7.8,2.3,11.6,3.2c4.5,1.4,9,2.6,13.5,3.6c7.6,2,15.1,3.9,22.7,5.7c7.8,1.9,15.6,3.8,23.4,5.4
					c2.3,0.7,18.7,4.1,24.5,5.1c3.2,0.8,6.4,1.4,9.6,1.9c5.7,1.1,11.3,2.2,17,3.1c30.6,5.4,61.4,9.6,92.4,12.4
					c9.4,1,18.8,1.6,28.2,2.3c9.4,0.7,18.9,1.2,28.3,1.6c225.8,10,2143,1184.1,2143,1184.1h668.6l-11-1858.7
					c0,0-598.7,456.8-1833.8,292.7c-421.3-56-658.5-468.7-1332.7-382.6C3587.9,2436.2,3290.9,2065.3,3080.9,1883z"/>
				<path class="st5" d="M3080.8,1882.9c-5.5-1.2-11.1-2.4-16.8-3.5l3.4,0.8C3072,1881.1,3076.4,1882.1,3080.8,1882.9z"/>
				<path class="st6" d="M3080.8,1882.9c-5.5-1.2-11.1-2.4-16.8-3.5l3.4,0.8C3072,1881.1,3076.4,1882.1,3080.8,1882.9z"/>
				<path class="st2" d="M3036.8,1626c6.2,69.3,30.3,189.5,44,256.9c0-7.6,0-17.5,0.5-24.9c11.8-177.4,61.8-378.2,161.7-511.6
					c114.3-152.7,374.4-279.5,429-480.3c209.4-769.7,54.5-886.6,41.6-1041.6c-54.9,0.1-189.8-1.2-189.8,0
					c8.2,245.2-184.9,899.1-249.3,1055.1c-63.9,154.3-113.6,300.2-180.2,451.6C3055.1,1420.5,3027.6,1522.1,3036.8,1626z"/>
				<path class="st4" d="M2409.5,3641.6l321.5,677.5h1014.7c-55.7-68.3-440.5-344.1-696-891.2c-110.4-236.4-214.2-452-196.2-722.2
					c33.8-508.6,214.7-781.5,227.3-822.8c-4.9,3-9.9,5.9-14.8,8.8l-0.1,0.1c-1.7,1-3.3,1.9-5,2.9c-4.7,2.7-675.3,820.5-588.7,1393.4
					C2490.4,3408.1,2444.8,3529.7,2409.5,3641.6z"/>
				<path class="st4" d="M3080.9,1883.2c0,0.1,17.8,197.6,111.8,353.3c77,127.5,134.2,223.5,170.8,273.3
					c134.2,181.6,319.8,397.7,479.2,489.1c86.1,49.5,186.3,50.4,286.5,78.1c61,14.2,1907.7,1226.8,2077.6,1242.3
					c1228.2,111.7,1064.7-661.3,1071.9-650.3c-4.9-19.9-1141.9-250.5-2182.8-661.9c-742.3-293.3-1359.4-415.3-1559-598.6
					C3384.7,2268.7,3108.3,1954.5,3080.9,1883.2z"/>
				<path class="st4" d="M2905.9-181.4C2860.1-63.6,2728.1,401,2775.2,988.9c13.5,168.8,18.2,345.4,69.1,499.3
					c50.6,153.1,123.6,286.4,236.5,394.7c-360.9-604.5,211-2039.9,215.8-2064.9C3206.8-181.9,3033.2-181.7,2905.9-181.4z"/>
				<path class="st4" d="M2351.3,1360.7c77,68.3,137.8,146.6,209.2,214.1c145.4,137.5,359.2,242.3,370.5,248.6c5,2.8,10,5.7,15,8.2
					c7.3,3.9,14.4,7.6,21.6,11.1c4.4,2.2,8.8,4.3,13,6.4h0.2c0.6,0.4,1.2,0.7,1.8,1c5.2,2.4,10.3,4.6,15.3,6.8
					c0.7,0.3,1.3,0.5,1.9,0.8c5.4,2.3,10.9,4.6,16.2,6.5c0.9,0.4,35.6,12.6,64.8,18.8c-98.9-30.7-611.8-410.4-706.7-730.3
					c-49.2-166.4-181.8-289.4-253.8-441c-51.5-108.5-995.5-835.9-1146.6-893.6c-166.5-63.6-704.9-93.1-562-21.1
					C1057.6,122.3,2337.8,1348.8,2351.3,1360.7z"/>
				<path class="st4" d="M7376.4,1370.8c-48.8-134.7-25.9-1524.8-36.7-1553.1c-8.8-23.4-1090.2-3.6-1258.7,0
					c-175.9,419.7-1064.5,422.9-1467,896.6c-204,240.1-370.2,632.9-819.8,921.7c-152.5,97.9-711.5,245.1-713.4,247
					c4.9,1.5,9.9,3.1,14.9,4.7c231.7,72,459,91.8,696.9,85.7c1034.4-26.3,1505.2-698.8,1505.2-698.8S7429.3,1516.6,7376.4,1370.8z"
					/>
				<path class="st7" d="M3240.5,2744.4c118.7,272,287,491.4,523.1,551.6c204.1,52,702.2,130.7,873.8,295.4
					c343.1,329.4,361.4,654.8,402.8,727.8l0,0l888.1,13.8C5126.8,3405.2,4545,3090.2,4108.6,3028.1
					c-758.6-108-1025.4-1134.8-1027.8-1145.2C3101.1,2186.9,3121.8,2472.5,3240.5,2744.4z"/>
				<path class="st7" d="M2156.8,4319.1h741.5c-54.1-124.6-297.1-938.7-313.1-1233.7c-35.9-664.4,495.6-1202.5,495.6-1202.5
					c-1.7,1-18.2,10.8-19.9,11.9c-4.7,2.7-9.4,5.7-14.1,8.5c-2,1.1-3.8,2.3-5.7,3.4c-0.5,0.3-1,0.7-1.5,1h-0.1
					c-23.4,14.3-252.4,160.9-545.3,529.1c-165.4,207.9-175.5,562.4-188.4,848.1C2300.3,3408,2368,3939.4,2156.8,4319.1z"/>
				<path class="st7" d="M-309.9,1658.3v783.4c114.9,7,922.4-0.4,1352.8-24.8c654.6-37.1,966.5-555.7,1378.1-529.5
					c147.8,9.4,659.8-4.6,659.8-4.6c-51.9-12-641.9-288.4-1111-178.4c-323.9,75.9-1172.2-106.5-1368.4-147.7
					C107.9,1453.2-309.9,1550.3-309.9,1658.3z"/>
				<path class="st7" d="M3080.8,1882.9c51.9-213.5,208.5-368.6,360.8-473.3c152.3-104.6,283.6-207.2,405.4-365.5
					c136.8-178,238.9-498.4,378.7-1226.2c-89.1,0.3-456.2,0-543.9,0c150.7,436.4-5.2,907.9-65.3,1032.8
					c-86.2,178.9-277.4,335.7-383.3,503.6C3067.6,1617.1,3080.3,1880.3,3080.8,1882.9z"/>
				<path class="st7" d="M980.3-182c-18.8,65.5,65,180,527.3,415c384,195.1,681.6,665.6,804.6,877.1c31.6,54.3,87.6,127.6,120,180.5
					c38.2,62.3,94.3,137.2,150.9,199.6c321.5,354.7,493.8,392.1,497.8,392.8c-105.9-33.8-508.6-401.3-583.7-740
					c-38.5-173.6-95.7-325.9-167.7-477.5C2277.9,557,2203.7,471.7,2120.3,403C2120.3,403,1261.6-441.1,980.3-182z"/>
				<path class="st7" d="M4526.3,1753.6c437.3-641,2085.1-1489.9,2513.8-869.7c45.7,125.4,787.5-412.3,750.1-28.3
					c-74.9,768.5-822.4,2072.1-2220.4,1457.6c-307.7-135.3-904.6-313.6-1410.8-231.1c-265.6,43.3-801.6-116.9-1061.5-197.3
					c-5.5-1.8-11.1-3.6-16.7-5.3C3083,1877.2,4410.9,1922.7,4526.3,1753.6z"/>
				<path class="st8" d="M2280.4,2408.9h0.8c-3.7,10.1-7,19.3-8.7,24.2c1.5-5.1,3.1-10.1,4.9-15.1c0.8-2.6,1.7-5,2.6-7.6
					C2280,2409.8,2280.2,2409.4,2280.4,2408.9z"/>
				<ellipse class="st9" cx="6529.4" cy="2733.8" rx="20.6" ry="29.3"/>
				<ellipse class="st10" cx="5697" cy="882.8" rx="20.6" ry="29.3"/>
				<ellipse class="st11" cx="6508.9" cy="2249.4" rx="20.6" ry="29.3"/>
			</g>
		</g>
	</g>
</g>
</svg>
